<?xml version="1.0" encoding="UTF-8" standalone="no"?>
<!DOCTYPE svg PUBLIC "-//W3C//DTD SVG 1.1//EN"
 "http://www.w3.org/Graphics/SVG/1.1/DTD/svg11.dtd">
<!-- Generated by graphviz version 2.40.1 (20161225.0304)
 -->
<!-- Title: change Pages: 1 -->
<svg width="95pt" height="302pt"
 viewBox="0.00 0.00 95.50 302.00" xmlns="http://www.w3.org/2000/svg" xmlns:xlink="http://www.w3.org/1999/xlink">
<g id="graph0" class="graph" transform="scale(1 1) rotate(0) translate(4 298)">
<title>change</title>
<polygon fill="#ffffff" stroke="transparent" points="-4,4 -4,-298 91.4951,-298 91.4951,4 -4,4"/>
<!-- content0 -->
<g id="node1" class="node">
<title>content0</title>
<polygon fill="none" stroke="#000000" points="67.5612,-294 .1459,-294 .1459,-258 67.5612,-258 67.5612,-294"/>
<text text-anchor="middle" x="33.8535" y="-271.8" font-family="Times,serif" font-size="14.00" fill="#000000">content 0</text>
</g>
<!-- content1 -->
<g id="node2" class="node">
<title>content1</title>
<polygon fill="none" stroke="#000000" points="67.5612,-208 .1459,-208 .1459,-172 67.5612,-172 67.5612,-208"/>
<text text-anchor="middle" x="33.8535" y="-185.8" font-family="Times,serif" font-size="14.00" fill="#000000">content 1</text>
</g>
<!-- content0&#45;&gt;content1 -->
<g id="edge1" class="edge">
<title>content0&#45;&gt;content1</title>
<path fill="none" stroke="#000000" d="M33.8535,-257.7616C33.8535,-246.3597 33.8535,-231.4342 33.8535,-218.494"/>
<polygon fill="#000000" stroke="#000000" points="37.3536,-218.2121 33.8535,-208.2121 30.3536,-218.2121 37.3536,-218.2121"/>
<text text-anchor="middle" x="60.6743" y="-228.8" font-family="Times,serif" font-size="14.00" fill="#000000"> &#160;change0</text>
</g>
<!-- content2 -->
<g id="node3" class="node">
<title>content2</title>
<polygon fill="none" stroke="#000000" points="67.5612,-122 .1459,-122 .1459,-86 67.5612,-86 67.5612,-122"/>
<text text-anchor="middle" x="33.8535" y="-99.8" font-family="Times,serif" font-size="14.00" fill="#000000">content 2</text>
</g>
<!-- content1&#45;&gt;content2 -->
<g id="edge2" class="edge">
<title>content1&#45;&gt;content2</title>
<path fill="none" stroke="#000000" d="M33.8535,-171.7616C33.8535,-160.3597 33.8535,-145.4342 33.8535,-132.494"/>
<polygon fill="#000000" stroke="#000000" points="37.3536,-132.2121 33.8535,-122.2121 30.3536,-132.2121 37.3536,-132.2121"/>
<text text-anchor="middle" x="60.6743" y="-142.8" font-family="Times,serif" font-size="14.00" fill="#000000"> &#160;change1</text>
</g>
<!-- content3 -->
<g id="node4" class="node">
<title>content3</title>
<polygon fill="none" stroke="#000000" points="67.5612,-36 .1459,-36 .1459,0 67.5612,0 67.5612,-36"/>
<text text-anchor="middle" x="33.8535" y="-13.8" font-family="Times,serif" font-size="14.00" fill="#000000">content 3</text>
</g>
<!-- content2&#45;&gt;content3 -->
<g id="edge3" class="edge">
<title>content2&#45;&gt;content3</title>
<path fill="none" stroke="#000000" d="M33.8535,-85.7616C33.8535,-74.3597 33.8535,-59.4342 33.8535,-46.494"/>
<polygon fill="#000000" stroke="#000000" points="37.3536,-46.2121 33.8535,-36.2121 30.3536,-46.2121 37.3536,-46.2121"/>
<text text-anchor="middle" x="60.6743" y="-56.8" font-family="Times,serif" font-size="14.00" fill="#000000"> &#160;change2</text>
</g>
</g>
</svg>
