<?xml version="1.0" encoding="UTF-8" standalone="no"?>
<!DOCTYPE svg PUBLIC "-//W3C//DTD SVG 1.1//EN"
 "http://www.w3.org/Graphics/SVG/1.1/DTD/svg11.dtd">
<!-- Generated by graphviz version 2.40.1 (20161225.0304)
 -->
<!-- Title: introduction Pages: 1 -->
<svg width="484pt" height="332pt"
 viewBox="0.00 0.00 484.20 332.00" xmlns="http://www.w3.org/2000/svg" xmlns:xlink="http://www.w3.org/1999/xlink">
<g id="graph0" class="graph" transform="scale(1 1) rotate(0) translate(4 328)">
<title>introduction</title>
<polygon fill="#ffffff" stroke="transparent" points="-4,4 -4,-328 480.1987,-328 480.1987,4 -4,4"/>
<!-- initial -->
<g id="node1" class="node">
<title>initial</title>
<polygon fill="none" stroke="#000000" points="284.619,-324 204.5538,-324 204.5538,-288 284.619,-288 284.619,-324"/>
<text text-anchor="middle" x="244.5864" y="-301.8" font-family="Times,serif" font-size="14.00" fill="#000000">Initial: &#39;Hi!&#39;</text>
</g>
<!-- alice_rev0 -->
<g id="node2" class="node">
<title>alice_rev0</title>
<polygon fill="none" stroke="#000000" points="127.2594,-252 -.0865,-252 -.0865,-216 127.2594,-216 127.2594,-252"/>
<text text-anchor="start" x="8" y="-230.8" font-family="Times,serif" font-size="14.00" fill="#000000">Alice deletes &#39;i&#39;: H</text>
<text text-anchor="start" x="110.6211" y="-230.8" font-family="Times,serif" text-decoration="line-through" font-size="14.00" fill="#ff0000">i</text>
<text text-anchor="start" x="114.5107" y="-230.8" font-family="Times,serif" font-size="14.00" fill="#000000">!</text>
</g>
<!-- initial&#45;&gt;alice_rev0 -->
<g id="edge1" class="edge">
<title>initial&#45;&gt;alice_rev0</title>
<path fill="none" stroke="#000000" d="M204.4167,-290.0209C179.1692,-279.9777 146.2589,-266.8863 118.6019,-255.8846"/>
<polygon fill="#000000" stroke="#000000" points="119.6451,-252.5329 109.0596,-252.0888 117.0577,-259.0372 119.6451,-252.5329"/>
</g>
<!-- bob_rev0 -->
<g id="node4" class="node">
<title>bob_rev0</title>
<polygon fill="none" stroke="#000000" points="343.9285,-252 145.2443,-252 145.2443,-216 343.9285,-216 343.9285,-252"/>
<text text-anchor="start" x="153.4155" y="-230.8" font-family="Times,serif" font-size="14.00" fill="#000000">Bob inserts &#39;, pretty&#39;: &#39;Hi</text>
<text text-anchor="start" x="288.9175" y="-230.8" font-family="Times,serif" font-size="14.00" fill="#00ff00">, pretty</text>
<text text-anchor="start" x="328.5728" y="-230.8" font-family="Times,serif" font-size="14.00" fill="#000000">!&#39;</text>
</g>
<!-- initial&#45;&gt;bob_rev0 -->
<g id="edge4" class="edge">
<title>initial&#45;&gt;bob_rev0</title>
<path fill="none" stroke="#000000" d="M244.5864,-287.8314C244.5864,-280.131 244.5864,-270.9743 244.5864,-262.4166"/>
<polygon fill="#000000" stroke="#000000" points="248.0865,-262.4132 244.5864,-252.4133 241.0865,-262.4133 248.0865,-262.4132"/>
</g>
<!-- charlie_rev0 -->
<g id="node5" class="node">
<title>charlie_rev0</title>
<polygon fill="none" stroke="#000000" points="476.3112,-180 266.8617,-180 266.8617,-144 476.3112,-144 476.3112,-180"/>
<text text-anchor="start" x="274.9741" y="-158.8" font-family="Times,serif" font-size="14.00" fill="#000000">Charlie inserts &#39; world&#39;: &#39;Hi </text>
<text text-anchor="start" x="428.3521" y="-158.8" font-family="Times,serif" font-size="14.00" fill="#00ff00">world</text>
<text text-anchor="start" x="461.0142" y="-158.8" font-family="Times,serif" font-size="14.00" fill="#000000">!&#39;</text>
</g>
<!-- initial&#45;&gt;charlie_rev0 -->
<g id="edge7" class="edge">
<title>initial&#45;&gt;charlie_rev0</title>
<path fill="none" stroke="#000000" d="M284.6826,-295.495C307.9142,-287.3657 335.8013,-273.7348 352.5864,-252 366.1124,-234.4854 370.5622,-209.5613 371.7986,-190.3812"/>
<polygon fill="#000000" stroke="#000000" points="375.306,-190.2544 372.196,-180.1263 368.3113,-189.9832 375.306,-190.2544"/>
</g>
<!-- alice_rev1 -->
<g id="node3" class="node">
<title>alice_rev1</title>
<polygon fill="none" stroke="#000000" points="178.6939,-180 14.479,-180 14.479,-144 178.6939,-144 178.6939,-180"/>
<text text-anchor="start" x="22.5327" y="-158.8" font-family="Times,serif" font-size="14.00" fill="#000000">Alice inserts &#39;ello&#39;: &#39;H</text>
<text text-anchor="start" x="142.4624" y="-158.8" font-family="Times,serif" font-size="14.00" fill="#00ff00">ello</text>
<text text-anchor="start" x="163.4556" y="-158.8" font-family="Times,serif" font-size="14.00" fill="#000000">!&#39;</text>
</g>
<!-- alice_rev0&#45;&gt;alice_rev1 -->
<g id="edge2" class="edge">
<title>alice_rev0&#45;&gt;alice_rev1</title>
<path fill="none" stroke="#000000" d="M71.9137,-215.8314C75.5594,-207.8771 79.9173,-198.369 83.9491,-189.5723"/>
<polygon fill="#000000" stroke="#000000" points="87.1621,-190.9622 88.147,-180.4133 80.7987,-188.0456 87.1621,-190.9622"/>
</g>
<!-- merged1 -->
<g id="node6" class="node">
<title>merged1</title>
<polygon fill="none" stroke="#000000" points="314.1235,-108 163.0493,-108 163.0493,-72 314.1235,-72 314.1235,-108"/>
<text text-anchor="start" x="171.0679" y="-86.8" font-family="Times,serif" font-size="14.00" fill="#000000">Merged: &#39;H</text>
<text text-anchor="start" x="234.3823" y="-86.8" font-family="Times,serif" text-decoration="line-through" font-size="14.00" fill="#ff0000">i</text>
<text text-anchor="start" x="238.272" y="-86.8" font-family="Times,serif" font-size="14.00" fill="#00ff00">ello, pretty</text>
<text text-anchor="start" x="298.9204" y="-86.8" font-family="Times,serif" font-size="14.00" fill="#000000">!&#39;</text>
</g>
<!-- alice_rev1&#45;&gt;merged1 -->
<g id="edge3" class="edge">
<title>alice_rev1&#45;&gt;merged1</title>
<path fill="none" stroke="#000000" d="M132.419,-143.8314C151.0021,-134.4089 173.8853,-122.8062 193.6429,-112.7883"/>
<polygon fill="#000000" stroke="#000000" points="195.4291,-115.8069 202.7653,-108.1628 192.2634,-109.5635 195.4291,-115.8069"/>
</g>
<!-- bob_rev0&#45;&gt;merged1 -->
<g id="edge5" class="edge">
<title>bob_rev0&#45;&gt;merged1</title>
<path fill="none" stroke="#000000" d="M243.8265,-215.7623C242.8031,-191.201 240.9717,-147.2474 239.7678,-118.3541"/>
<polygon fill="#000000" stroke="#000000" points="243.2535,-117.9352 239.3402,-108.0896 236.2596,-118.2267 243.2535,-117.9352"/>
</g>
<!-- merged2 -->
<g id="node7" class="node">
<title>merged2</title>
<polygon fill="none" stroke="#000000" points="384.2858,-36 196.8871,-36 196.8871,0 384.2858,0 384.2858,-36"/>
<text text-anchor="start" x="204.9868" y="-14.8" font-family="Times,serif" font-size="14.00" fill="#000000">Merged: &#39;H</text>
<text text-anchor="start" x="268.3013" y="-14.8" font-family="Times,serif" text-decoration="line-through" font-size="14.00" fill="#ff0000">i</text>
<text text-anchor="start" x="272.1909" y="-14.8" font-family="Times,serif" font-size="14.00" fill="#00ff00">ello, pretty world</text>
<text text-anchor="start" x="369.0015" y="-14.8" font-family="Times,serif" font-size="14.00" fill="#000000">!&#39;</text>
</g>
<!-- charlie_rev0&#45;&gt;merged2 -->
<g id="edge8" class="edge">
<title>charlie_rev0&#45;&gt;merged2</title>
<path fill="none" stroke="#000000" d="M362.3304,-143.901C352.8814,-125.6053 337.6463,-96.5987 323.5864,-72 318.4879,-63.0797 312.7107,-53.4707 307.4311,-44.8665"/>
<polygon fill="#000000" stroke="#000000" points="310.393,-43.0015 302.1586,-36.3347 304.4383,-46.6814 310.393,-43.0015"/>
</g>
<!-- merged1&#45;&gt;merged2 -->
<g id="edge6" class="edge">
<title>merged1&#45;&gt;merged2</title>
<path fill="none" stroke="#000000" d="M251.7082,-71.8314C257.6363,-63.6232 264.7594,-53.7606 271.2798,-44.7323"/>
<polygon fill="#000000" stroke="#000000" points="274.2704,-46.5693 277.288,-36.4133 268.5956,-42.4708 274.2704,-46.5693"/>
</g>
</g>
</svg>
