<?xml version="1.0" encoding="UTF-8" standalone="no"?>
<!DOCTYPE svg PUBLIC "-//W3C//DTD SVG 1.1//EN"
 "http://www.w3.org/Graphics/SVG/1.1/DTD/svg11.dtd">
<!-- Generated by graphviz version 2.40.1 (20161225.0304)
 -->
<!-- Title: introduction Pages: 1 -->
<svg width="597pt" height="332pt"
 viewBox="0.00 0.00 597.49 332.00" xmlns="http://www.w3.org/2000/svg" xmlns:xlink="http://www.w3.org/1999/xlink">
<g id="graph0" class="graph" transform="scale(1 1) rotate(0) translate(4 328)">
<title>introduction</title>
<polygon fill="#ffffff" stroke="transparent" points="-4,4 -4,-328 593.4943,-328 593.4943,4 -4,4"/>
<!-- initial -->
<g id="node1" class="node">
<title>initial</title>
<ellipse fill="none" stroke="#000000" cx="304.3321" cy="-306" rx="48.3255" ry="18"/>
<text text-anchor="middle" x="304.3321" y="-301.8" font-family="Times,serif" font-size="14.00" fill="#000000">Initial &#39;Hi!&#39;</text>
</g>
<!-- alice_rev0 -->
<g id="node2" class="node">
<title>alice_rev0</title>
<ellipse fill="none" stroke="#000000" cx="80.3321" cy="-234" rx="80.1645" ry="18"/>
<text text-anchor="start" x="24.7456" y="-230.8" font-family="Times,serif" font-size="14.00" fill="#000000">Alice deletes &#39;i&#39;: H</text>
<text text-anchor="start" x="127.3667" y="-230.8" font-family="Times,serif" text-decoration="line-through" font-size="14.00" fill="#ff0000">i</text>
<text text-anchor="start" x="131.2564" y="-230.8" font-family="Times,serif" font-size="14.00" fill="#000000">!</text>
</g>
<!-- initial&#45;&gt;alice_rev0 -->
<g id="edge1" class="edge">
<title>initial&#45;&gt;alice_rev0</title>
<path fill="none" stroke="#000000" d="M267.343,-294.1107C231.5657,-282.6108 176.8886,-265.036 135.8817,-251.8553"/>
<polygon fill="#000000" stroke="#000000" points="136.891,-248.5034 126.2997,-248.7753 134.7489,-255.1676 136.891,-248.5034"/>
</g>
<!-- bob_rev0 -->
<g id="node4" class="node">
<title>bob_rev0</title>
<ellipse fill="none" stroke="#000000" cx="304.3321" cy="-234" rx="125.0759" ry="18"/>
<text text-anchor="start" x="213.1612" y="-230.8" font-family="Times,serif" font-size="14.00" fill="#000000">Bob inserts &#39;, pretty&#39;: &#39;Hi</text>
<text text-anchor="start" x="348.6631" y="-230.8" font-family="Times,serif" font-size="14.00" fill="#00ff00">, pretty</text>
<text text-anchor="start" x="388.3184" y="-230.8" font-family="Times,serif" font-size="14.00" fill="#000000">!&#39;</text>
</g>
<!-- initial&#45;&gt;bob_rev0 -->
<g id="edge4" class="edge">
<title>initial&#45;&gt;bob_rev0</title>
<path fill="none" stroke="#000000" d="M304.3321,-287.8314C304.3321,-280.131 304.3321,-270.9743 304.3321,-262.4166"/>
<polygon fill="#000000" stroke="#000000" points="307.8322,-262.4132 304.3321,-252.4133 300.8322,-262.4133 307.8322,-262.4132"/>
</g>
<!-- charlie_rev0 -->
<g id="node5" class="node">
<title>charlie_rev0</title>
<ellipse fill="none" stroke="#000000" cx="457.3321" cy="-162" rx="132.3246" ry="18"/>
<text text-anchor="start" x="360.7198" y="-158.8" font-family="Times,serif" font-size="14.00" fill="#000000">Charlie inserts &#39; world&#39;: &#39;Hi</text>
<text text-anchor="start" x="510.5977" y="-158.8" font-family="Times,serif" font-size="14.00" fill="#00ff00"> world</text>
<text text-anchor="start" x="546.7598" y="-158.8" font-family="Times,serif" font-size="14.00" fill="#000000">!&#39;</text>
</g>
<!-- initial&#45;&gt;charlie_rev0 -->
<g id="edge7" class="edge">
<title>initial&#45;&gt;charlie_rev0</title>
<path fill="none" stroke="#000000" d="M349.3194,-299.0615C378.8886,-292.1403 416.0898,-278.5205 438.3321,-252 452.7052,-234.8623 457.0381,-209.5368 458.0148,-190.1129"/>
<polygon fill="#000000" stroke="#000000" points="461.516,-190.0987 458.2546,-180.0184 454.518,-189.9325 461.516,-190.0987"/>
</g>
<!-- alice_rev1 -->
<g id="node3" class="node">
<title>alice_rev1</title>
<ellipse fill="none" stroke="#000000" cx="123.3321" cy="-162" rx="103.8257" ry="18"/>
<text text-anchor="start" x="49.2783" y="-158.8" font-family="Times,serif" font-size="14.00" fill="#000000">Alice inserts &#39;ello&#39;: &#39;H</text>
<text text-anchor="start" x="169.208" y="-158.8" font-family="Times,serif" font-size="14.00" fill="#00ff00">ello</text>
<text text-anchor="start" x="190.2012" y="-158.8" font-family="Times,serif" font-size="14.00" fill="#000000">!&#39;</text>
</g>
<!-- alice_rev0&#45;&gt;alice_rev1 -->
<g id="edge2" class="edge">
<title>alice_rev0&#45;&gt;alice_rev1</title>
<path fill="none" stroke="#000000" d="M91.1828,-215.8314C96.109,-207.5829 102.033,-197.6635 107.4464,-188.5992"/>
<polygon fill="#000000" stroke="#000000" points="110.5112,-190.2935 112.6338,-179.9134 104.5014,-186.7042 110.5112,-190.2935"/>
</g>
<!-- merged1 -->
<g id="node6" class="node">
<title>merged1</title>
<ellipse fill="none" stroke="#000000" cx="297.3321" cy="-90" rx="95.3132" ry="18"/>
<text text-anchor="start" x="229.8135" y="-86.8" font-family="Times,serif" font-size="14.00" fill="#000000">Merged: &#39;H</text>
<text text-anchor="start" x="293.128" y="-86.8" font-family="Times,serif" text-decoration="line-through" font-size="14.00" fill="#ff0000">i</text>
<text text-anchor="start" x="297.0176" y="-86.8" font-family="Times,serif" font-size="14.00" fill="#00ff00">ello, pretty</text>
<text text-anchor="start" x="357.666" y="-86.8" font-family="Times,serif" font-size="14.00" fill="#000000">!&#39;</text>
</g>
<!-- alice_rev1&#45;&gt;merged1 -->
<g id="edge3" class="edge">
<title>alice_rev1&#45;&gt;merged1</title>
<path fill="none" stroke="#000000" d="M163.6885,-145.3008C188.8135,-134.9042 221.3071,-121.4586 247.9628,-110.4286"/>
<polygon fill="#000000" stroke="#000000" points="249.5929,-113.542 257.4948,-106.4844 246.9163,-107.0739 249.5929,-113.542"/>
</g>
<!-- bob_rev0&#45;&gt;merged1 -->
<g id="edge5" class="edge">
<title>bob_rev0&#45;&gt;merged1</title>
<path fill="none" stroke="#000000" d="M303.4455,-215.7623C302.2516,-191.201 300.1149,-147.2474 298.7104,-118.3541"/>
<polygon fill="#000000" stroke="#000000" points="302.1929,-117.9079 298.2114,-108.0896 295.2012,-118.2478 302.1929,-117.9079"/>
</g>
<!-- merged2 -->
<g id="node7" class="node">
<title>merged2</title>
<ellipse fill="none" stroke="#000000" cx="358.3321" cy="-18" rx="118.4991" ry="18"/>
<text text-anchor="start" x="272.7324" y="-14.8" font-family="Times,serif" font-size="14.00" fill="#000000">Merged: &#39;H</text>
<text text-anchor="start" x="336.0469" y="-14.8" font-family="Times,serif" text-decoration="line-through" font-size="14.00" fill="#ff0000">i</text>
<text text-anchor="start" x="339.9366" y="-14.8" font-family="Times,serif" font-size="14.00" fill="#00ff00">ello, pretty world</text>
<text text-anchor="start" x="436.7471" y="-14.8" font-family="Times,serif" font-size="14.00" fill="#000000">!&#39;</text>
</g>
<!-- charlie_rev0&#45;&gt;merged2 -->
<g id="edge8" class="edge">
<title>charlie_rev0&#45;&gt;merged2</title>
<path fill="none" stroke="#000000" d="M446.9779,-144.0177C436.1603,-125.5637 418.4153,-96.2076 401.3321,-72 394.7342,-62.6506 387.0761,-52.7632 380.0665,-44.0398"/>
<polygon fill="#000000" stroke="#000000" points="382.6251,-41.6386 373.6004,-36.0883 377.1941,-46.0551 382.6251,-41.6386"/>
</g>
<!-- merged1&#45;&gt;merged2 -->
<g id="edge6" class="edge">
<title>merged1&#45;&gt;merged2</title>
<path fill="none" stroke="#000000" d="M312.4107,-72.2022C319.6146,-63.6992 328.3762,-53.3577 336.3073,-43.9965"/>
<polygon fill="#000000" stroke="#000000" points="339.2094,-45.9855 343.0032,-36.0931 333.8685,-41.4605 339.2094,-45.9855"/>
</g>
</g>
</svg>
