<?xml version="1.0" encoding="UTF-8" standalone="no"?>
<!DOCTYPE svg PUBLIC "-//W3C//DTD SVG 1.1//EN"
 "http://www.w3.org/Graphics/SVG/1.1/DTD/svg11.dtd">
<!-- Generated by graphviz version 2.40.1 (20161225.0304)
 -->
<!-- Title: introduction Pages: 1 -->
<svg width="584pt" height="332pt"
 viewBox="0.00 0.00 584.20 332.00" xmlns="http://www.w3.org/2000/svg" xmlns:xlink="http://www.w3.org/1999/xlink">
<g id="graph0" class="graph" transform="scale(1 1) rotate(0) translate(4 328)">
<title>introduction</title>
<polygon fill="#ffffff" stroke="transparent" points="-4,4 -4,-328 580.1987,-328 580.1987,4 -4,4"/>
<!-- initial -->
<g id="node1" class="node">
<title>initial</title>
<polygon fill="none" stroke="#000000" points="324.619,-324 244.5538,-324 244.5538,-288 324.619,-288 324.619,-324"/>
<text text-anchor="middle" x="284.5864" y="-301.8" font-family="Times,serif" font-size="14.00" fill="#000000">Initial: &#39;Hi!&#39;</text>
</g>
<!-- alice_rev0 -->
<g id="node2" class="node">
<title>alice_rev0</title>
<polygon fill="none" stroke="#000000" points="127.2594,-252 -.0865,-252 -.0865,-216 127.2594,-216 127.2594,-252"/>
<text text-anchor="start" x="8" y="-230.8" font-family="Times,serif" font-size="14.00" fill="#000000">Alice deletes &#39;i&#39;: H</text>
<text text-anchor="start" x="110.6211" y="-230.8" font-family="Times,serif" text-decoration="line-through" font-size="14.00" fill="#ff0000">i</text>
<text text-anchor="start" x="114.5107" y="-230.8" font-family="Times,serif" font-size="14.00" fill="#000000">!</text>
</g>
<!-- initial&#45;&gt;alice_rev0 -->
<g id="edge1" class="edge">
<title>initial&#45;&gt;alice_rev0</title>
<path fill="none" stroke="#000000" d="M244.3086,-306C180.5646,-306 63.5864,-306 63.5864,-306 63.5864,-306 63.5864,-262.1686 63.5864,-262.1686"/>
<polygon fill="#000000" stroke="#000000" points="67.0865,-262.1686 63.5864,-252.1686 60.0865,-262.1687 67.0865,-262.1686"/>
</g>
<!-- bob_rev0 -->
<g id="node4" class="node">
<title>bob_rev0</title>
<polygon fill="none" stroke="#000000" points="383.9285,-252 185.2443,-252 185.2443,-216 383.9285,-216 383.9285,-252"/>
<text text-anchor="start" x="193.4155" y="-230.8" font-family="Times,serif" font-size="14.00" fill="#000000">Bob inserts &#39;, pretty&#39;: &#39;Hi</text>
<text text-anchor="start" x="328.9175" y="-230.8" font-family="Times,serif" font-size="14.00" fill="#00ff00">, pretty</text>
<text text-anchor="start" x="368.5728" y="-230.8" font-family="Times,serif" font-size="14.00" fill="#000000">!&#39;</text>
</g>
<!-- initial&#45;&gt;bob_rev0 -->
<g id="edge4" class="edge">
<title>initial&#45;&gt;bob_rev0</title>
<path fill="none" stroke="#000000" d="M284.5864,-287.8314C284.5864,-287.8314 284.5864,-262.4133 284.5864,-262.4133"/>
<polygon fill="#000000" stroke="#000000" points="288.0865,-262.4132 284.5864,-252.4133 281.0865,-262.4133 288.0865,-262.4132"/>
</g>
<!-- charlie_rev0 -->
<g id="node5" class="node">
<title>charlie_rev0</title>
<polygon fill="none" stroke="#000000" points="576.3112,-180 366.8617,-180 366.8617,-144 576.3112,-144 576.3112,-180"/>
<text text-anchor="start" x="374.9741" y="-158.8" font-family="Times,serif" font-size="14.00" fill="#000000">Charlie inserts &#39; world&#39;: &#39;Hi </text>
<text text-anchor="start" x="528.3521" y="-158.8" font-family="Times,serif" font-size="14.00" fill="#00ff00">world</text>
<text text-anchor="start" x="561.0142" y="-158.8" font-family="Times,serif" font-size="14.00" fill="#000000">!&#39;</text>
</g>
<!-- initial&#45;&gt;charlie_rev0 -->
<g id="edge7" class="edge">
<title>initial&#45;&gt;charlie_rev0</title>
<path fill="none" stroke="#000000" d="M325.0717,-306C382.3031,-306 479.978,-306 479.978,-306 479.978,-306 479.978,-190.2377 479.978,-190.2377"/>
<polygon fill="#000000" stroke="#000000" points="483.4781,-190.2377 479.978,-180.2377 476.4781,-190.2377 483.4781,-190.2377"/>
</g>
<!-- alice_rev1 -->
<g id="node3" class="node">
<title>alice_rev1</title>
<polygon fill="none" stroke="#000000" points="168.6939,-180 4.479,-180 4.479,-144 168.6939,-144 168.6939,-180"/>
<text text-anchor="start" x="12.5327" y="-158.8" font-family="Times,serif" font-size="14.00" fill="#000000">Alice inserts &#39;ello&#39;: &#39;H</text>
<text text-anchor="start" x="132.4624" y="-158.8" font-family="Times,serif" font-size="14.00" fill="#00ff00">ello</text>
<text text-anchor="start" x="153.4556" y="-158.8" font-family="Times,serif" font-size="14.00" fill="#000000">!&#39;</text>
</g>
<!-- alice_rev0&#45;&gt;alice_rev1 -->
<g id="edge2" class="edge">
<title>alice_rev0&#45;&gt;alice_rev1</title>
<path fill="none" stroke="#000000" d="M65.8528,-215.8314C65.8528,-215.8314 65.8528,-190.4133 65.8528,-190.4133"/>
<polygon fill="#000000" stroke="#000000" points="69.3529,-190.4132 65.8528,-180.4133 62.3529,-190.4133 69.3529,-190.4132"/>
</g>
<!-- merged1 -->
<g id="node6" class="node">
<title>merged1</title>
<polygon fill="none" stroke="#000000" points="354.1235,-108 203.0493,-108 203.0493,-72 354.1235,-72 354.1235,-108"/>
<text text-anchor="start" x="211.0679" y="-86.8" font-family="Times,serif" font-size="14.00" fill="#000000">Merged: &#39;H</text>
<text text-anchor="start" x="274.3823" y="-86.8" font-family="Times,serif" text-decoration="line-through" font-size="14.00" fill="#ff0000">i</text>
<text text-anchor="start" x="278.272" y="-86.8" font-family="Times,serif" font-size="14.00" fill="#00ff00">ello, pretty</text>
<text text-anchor="start" x="338.9204" y="-86.8" font-family="Times,serif" font-size="14.00" fill="#000000">!&#39;</text>
</g>
<!-- alice_rev1&#45;&gt;merged1 -->
<g id="edge3" class="edge">
<title>alice_rev1&#45;&gt;merged1</title>
<path fill="none" stroke="#000000" d="M169.0225,-162C211.0526,-162 253.4136,-162 253.4136,-162 253.4136,-162 253.4136,-118.1686 253.4136,-118.1686"/>
<polygon fill="#000000" stroke="#000000" points="256.9137,-118.1686 253.4136,-108.1686 249.9137,-118.1687 256.9137,-118.1686"/>
</g>
<!-- bob_rev0&#45;&gt;merged1 -->
<g id="edge5" class="edge">
<title>bob_rev0&#45;&gt;merged1</title>
<path fill="none" stroke="#000000" d="M303.7593,-215.7623C303.7593,-215.7623 303.7593,-118.0896 303.7593,-118.0896"/>
<polygon fill="#000000" stroke="#000000" points="307.2594,-118.0896 303.7593,-108.0896 300.2594,-118.0897 307.2594,-118.0896"/>
</g>
<!-- merged2 -->
<g id="node7" class="node">
<title>merged2</title>
<polygon fill="none" stroke="#000000" points="454.2858,-36 266.8871,-36 266.8871,0 454.2858,0 454.2858,-36"/>
<text text-anchor="start" x="274.9868" y="-14.8" font-family="Times,serif" font-size="14.00" fill="#000000">Merged: &#39;H</text>
<text text-anchor="start" x="338.3013" y="-14.8" font-family="Times,serif" text-decoration="line-through" font-size="14.00" fill="#ff0000">i</text>
<text text-anchor="start" x="342.1909" y="-14.8" font-family="Times,serif" font-size="14.00" fill="#00ff00">ello, pretty world</text>
<text text-anchor="start" x="439.0015" y="-14.8" font-family="Times,serif" font-size="14.00" fill="#000000">!&#39;</text>
</g>
<!-- charlie_rev0&#45;&gt;merged2 -->
<g id="edge8" class="edge">
<title>charlie_rev0&#45;&gt;merged2</title>
<path fill="none" stroke="#000000" d="M410.5801,-143.7623C410.5801,-143.7623 410.5801,-46.0896 410.5801,-46.0896"/>
<polygon fill="#000000" stroke="#000000" points="414.0802,-46.0896 410.5801,-36.0896 407.0802,-46.0897 414.0802,-46.0896"/>
</g>
<!-- merged1&#45;&gt;merged2 -->
<g id="edge6" class="edge">
<title>merged1&#45;&gt;merged2</title>
<path fill="none" stroke="#000000" d="M310.5459,-71.8314C310.5459,-71.8314 310.5459,-46.4133 310.5459,-46.4133"/>
<polygon fill="#000000" stroke="#000000" points="314.046,-46.4132 310.5459,-36.4133 307.046,-46.4133 314.046,-46.4132"/>
</g>
</g>
</svg>
