<?xml version="1.0" encoding="UTF-8" standalone="no"?>
<!DOCTYPE svg PUBLIC "-//W3C//DTD SVG 1.1//EN"
 "http://www.w3.org/Graphics/SVG/1.1/DTD/svg11.dtd">
<!-- Generated by graphviz version 2.40.1 (20161225.0304)
 -->
<!-- Title: merge Pages: 1 -->
<svg width="678pt" height="408pt"
 viewBox="0.00 0.00 678.00 408.00" xmlns="http://www.w3.org/2000/svg" xmlns:xlink="http://www.w3.org/1999/xlink">
<g id="graph0" class="graph" transform="scale(1 1) rotate(0) translate(4 404)">
<title>merge</title>
<polygon fill="#ffffff" stroke="transparent" points="-4,4 -4,-404 674,-404 674,4 -4,4"/>
<text text-anchor="middle" x="335" y="-6.8" font-family="Times,serif" font-size="14.00" fill="#000000">Orthogonal edges</text>
<g id="clust1" class="cluster">
<title>cluster_0</title>
<polygon fill="none" stroke="#000000" points="8,-174 8,-392 238,-392 238,-174 8,-174"/>
<text text-anchor="middle" x="123" y="-376.8" font-family="Times,serif" font-size="14.00" fill="#000000">Orthogonal edges</text>
</g>
<g id="clust2" class="cluster">
<title>cluster_1</title>
<polygon fill="none" stroke="#000000" points="246,-30 246,-392 662,-392 662,-30 246,-30"/>
<text text-anchor="middle" x="454" y="-376.8" font-family="Times,serif" font-size="14.00" fill="#000000">Orthogonal edges</text>
</g>
<!-- b_rev0 -->
<g id="node1" class="node">
<title>b_rev0</title>
<ellipse fill="none" stroke="#000000" cx="112" cy="-344" rx="28.0625" ry="18"/>
<text text-anchor="middle" x="112" y="-339.8" font-family="Times,serif" font-size="14.00" fill="#000000">rev 0</text>
</g>
<!-- b_rev1 -->
<g id="node2" class="node">
<title>b_rev1</title>
<ellipse fill="none" stroke="#000000" cx="44" cy="-272" rx="28.0625" ry="18"/>
<text text-anchor="middle" x="44" y="-267.8" font-family="Times,serif" font-size="14.00" fill="#000000">rev 1</text>
</g>
<!-- b_rev0&#45;&gt;b_rev1 -->
<g id="edge1" class="edge">
<title>b_rev0&#45;&gt;b_rev1</title>
<path fill="none" stroke="#000000" stroke-width="4" d="M107.0418,-326.2022C107.0418,-304.881 107.0418,-272 107.0418,-272 107.0418,-272 82.2019,-272 82.2019,-272"/>
<polygon fill="#000000" stroke="#000000" stroke-width="4" points="82.2019,-268.5001 72.2019,-272 82.2019,-275.5001 82.2019,-268.5001"/>
</g>
<!-- b_client1 -->
<g id="node4" class="node">
<title>b_client1</title>
<ellipse fill="none" stroke="#000000" cx="180" cy="-272" rx="49.7706" ry="18"/>
<text text-anchor="middle" x="180" y="-267.8" font-family="Times,serif" font-size="14.00" fill="#000000">client rev 1</text>
</g>
<!-- b_rev0&#45;&gt;b_client1 -->
<g id="edge3" class="edge">
<title>b_rev0&#45;&gt;b_client1</title>
<path fill="none" stroke="#000000" d="M135.0731,-333.6842C135.0731,-333.6842 135.0731,-290.0693 135.0731,-290.0693"/>
<polygon fill="#000000" stroke="#000000" points="138.5732,-290.0693 135.0731,-280.0693 131.5732,-290.0693 138.5732,-290.0693"/>
</g>
<!-- b_rev2 -->
<g id="node3" class="node">
<title>b_rev2</title>
<ellipse fill="none" stroke="#000000" cx="44" cy="-200" rx="28.0625" ry="18"/>
<text text-anchor="middle" x="44" y="-195.8" font-family="Times,serif" font-size="14.00" fill="#000000">rev 2</text>
</g>
<!-- b_rev1&#45;&gt;b_rev2 -->
<g id="edge2" class="edge">
<title>b_rev1&#45;&gt;b_rev2</title>
<path fill="none" stroke="#000000" stroke-width="4" d="M44,-253.8314C44,-253.8314 44,-228.4133 44,-228.4133"/>
<polygon fill="#000000" stroke="#000000" stroke-width="4" points="47.5001,-228.4132 44,-218.4133 40.5001,-228.4133 47.5001,-228.4132"/>
</g>
<!-- b_client2 -->
<g id="node5" class="node">
<title>b_client2</title>
<ellipse fill="none" stroke="#000000" cx="180" cy="-200" rx="49.7706" ry="18"/>
<text text-anchor="middle" x="180" y="-195.8" font-family="Times,serif" font-size="14.00" fill="#000000">client rev 2</text>
</g>
<!-- b_client1&#45;&gt;b_client2 -->
<g id="edge4" class="edge">
<title>b_client1&#45;&gt;b_client2</title>
<path fill="none" stroke="#000000" d="M180,-253.8314C180,-253.8314 180,-228.4133 180,-228.4133"/>
<polygon fill="#000000" stroke="#000000" points="183.5001,-228.4132 180,-218.4133 176.5001,-228.4133 183.5001,-228.4132"/>
</g>
<!-- rev0 -->
<g id="node6" class="node">
<title>rev0</title>
<ellipse fill="none" stroke="#000000" cx="442" cy="-344" rx="28.0625" ry="18"/>
<text text-anchor="middle" x="442" y="-339.8" font-family="Times,serif" font-size="14.00" fill="#000000">rev 0</text>
</g>
<!-- rev1 -->
<g id="node7" class="node">
<title>rev1</title>
<ellipse fill="none" stroke="#000000" cx="387" cy="-272" rx="28.0625" ry="18"/>
<text text-anchor="middle" x="387" y="-267.8" font-family="Times,serif" font-size="14.00" fill="#000000">rev 1</text>
</g>
<!-- rev0&#45;&gt;rev1 -->
<g id="edge5" class="edge">
<title>rev0&#45;&gt;rev1</title>
<path fill="none" stroke="#000000" stroke-width="4" d="M438.0731,-325.8314C438.0731,-304.502 438.0731,-272 438.0731,-272 438.0731,-272 425.2254,-272 425.2254,-272"/>
<polygon fill="#000000" stroke="#000000" stroke-width="4" points="425.2254,-268.5001 415.2254,-272 425.2254,-275.5001 425.2254,-268.5001"/>
</g>
<!-- client1 -->
<g id="node9" class="node">
<title>client1</title>
<ellipse fill="none" stroke="#000000" cx="511" cy="-200" rx="49.7706" ry="18"/>
<text text-anchor="middle" x="511" y="-195.8" font-family="Times,serif" font-size="14.00" fill="#000000">client rev 1</text>
</g>
<!-- rev0&#45;&gt;client1 -->
<g id="edge9" class="edge">
<title>rev0&#45;&gt;client1</title>
<path fill="none" stroke="#000000" d="M465.5731,-334.1023C465.5731,-334.1023 465.5731,-217.4482 465.5731,-217.4482"/>
<polygon fill="#000000" stroke="#000000" points="469.0732,-217.4482 465.5731,-207.4482 462.0732,-217.4483 469.0732,-217.4482"/>
</g>
<!-- rev2 -->
<g id="node8" class="node">
<title>rev2</title>
<ellipse fill="none" stroke="#000000" cx="375" cy="-200" rx="28.0625" ry="18"/>
<text text-anchor="middle" x="375" y="-195.8" font-family="Times,serif" font-size="14.00" fill="#000000">rev 2</text>
</g>
<!-- rev1&#45;&gt;rev2 -->
<g id="edge6" class="edge">
<title>rev1&#45;&gt;rev2</title>
<path fill="none" stroke="#000000" stroke-width="4" d="M381,-254.2022C381,-254.2022 381,-227.593 381,-227.593"/>
<polygon fill="#000000" stroke="#000000" stroke-width="4" points="384.5001,-227.593 381,-217.593 377.5001,-227.5931 384.5001,-227.593"/>
</g>
<!-- client1_ -->
<g id="node11" class="node">
<title>client1_</title>
<ellipse fill="none" stroke="#000000" cx="375" cy="-128" rx="120.6977" ry="18"/>
<text text-anchor="middle" x="375" y="-123.8" font-family="Times,serif" font-size="14.00" fill="#000000">rev 3 (client rev 1 transformed)</text>
</g>
<!-- rev2&#45;&gt;client1_ -->
<g id="edge7" class="edge">
<title>rev2&#45;&gt;client1_</title>
<path fill="none" stroke="#000000" stroke-width="4" d="M375,-181.8314C375,-181.8314 375,-156.4133 375,-156.4133"/>
<polygon fill="#000000" stroke="#000000" stroke-width="4" points="378.5001,-156.4132 375,-146.4133 371.5001,-156.4133 378.5001,-156.4132"/>
</g>
<!-- client2 -->
<g id="node10" class="node">
<title>client2</title>
<ellipse fill="none" stroke="#000000" cx="604" cy="-128" rx="49.7706" ry="18"/>
<text text-anchor="middle" x="604" y="-123.8" font-family="Times,serif" font-size="14.00" fill="#000000">client rev 2</text>
</g>
<!-- client1&#45;&gt;client2 -->
<g id="edge10" class="edge">
<title>client1&#45;&gt;client2</title>
<path fill="none" stroke="#000000" d="M524.9818,-182.5708C524.9818,-161.2622 524.9818,-128 524.9818,-128 524.9818,-128 543.9566,-128 543.9566,-128"/>
<polygon fill="#000000" stroke="#000000" points="543.9566,-131.5001 553.9566,-128 543.9565,-124.5001 543.9566,-131.5001"/>
</g>
<!-- client1&#45;&gt;client1_ -->
<g id="edge11" class="edge">
<title>client1&#45;&gt;client1_</title>
<path fill="none" stroke="#ff0000" stroke-dasharray="1,5" d="M478.4818,-186.1177C478.4818,-186.1177 478.4818,-147.6915 478.4818,-147.6915"/>
<polygon fill="#ff0000" stroke="#ff0000" points="481.9819,-147.6915 478.4818,-137.6915 474.9819,-147.6916 481.9819,-147.6915"/>
</g>
<!-- client2_ -->
<g id="node12" class="node">
<title>client2_</title>
<ellipse fill="none" stroke="#000000" cx="454" cy="-56" rx="120.6977" ry="18"/>
<text text-anchor="middle" x="454" y="-51.8" font-family="Times,serif" font-size="14.00" fill="#000000">rev 4 (client rev 2 transformed)</text>
</g>
<!-- client2&#45;&gt;client2_ -->
<g id="edge12" class="edge">
<title>client2&#45;&gt;client2_</title>
<path fill="none" stroke="#ff0000" stroke-dasharray="1,5" d="M564.4818,-116.75C564.4818,-116.75 564.4818,-73.4341 564.4818,-73.4341"/>
<polygon fill="#ff0000" stroke="#ff0000" points="567.9819,-73.434 564.4818,-63.4341 560.9819,-73.4341 567.9819,-73.434"/>
</g>
<!-- client1_&#45;&gt;client2_ -->
<g id="edge8" class="edge">
<title>client1_&#45;&gt;client2_</title>
<path fill="none" stroke="#000000" stroke-width="4" d="M414.5,-110.937C414.5,-110.937 414.5,-83.4407 414.5,-83.4407"/>
<polygon fill="#000000" stroke="#000000" stroke-width="4" points="418.0001,-83.4406 414.5,-73.4407 411.0001,-83.4407 418.0001,-83.4406"/>
</g>
</g>
</svg>
