<?xml version="1.0" encoding="UTF-8" standalone="no"?>
<!DOCTYPE svg PUBLIC "-//W3C//DTD SVG 1.1//EN"
 "http://www.w3.org/Graphics/SVG/1.1/DTD/svg11.dtd">
<!-- Generated by graphviz version 2.40.1 (20161225.0304)
 -->
<!-- Title: merge Pages: 1 -->
<svg width="598pt" height="364pt"
 viewBox="0.00 0.00 598.00 364.00" xmlns="http://www.w3.org/2000/svg" xmlns:xlink="http://www.w3.org/1999/xlink">
<g id="graph0" class="graph" transform="scale(1 1) rotate(0) translate(4 360)">
<title>merge</title>
<polygon fill="#ffffff" stroke="transparent" points="-4,4 -4,-360 594,-360 594,4 -4,4"/>
<g id="clust1" class="cluster">
<title>cluster_0</title>
<polygon fill="none" stroke="#000000" points="8,-152 8,-348 198,-348 198,-152 8,-152"/>
</g>
<g id="clust2" class="cluster">
<title>cluster_1</title>
<polygon fill="none" stroke="#000000" points="206,-8 206,-348 582,-348 582,-8 206,-8"/>
</g>
<!-- b_rev0 -->
<g id="node1" class="node">
<title>b_rev0</title>
<ellipse fill="none" stroke="#000000" cx="92" cy="-322" rx="28.0625" ry="18"/>
<text text-anchor="middle" x="92" y="-317.8" font-family="Times,serif" font-size="14.00" fill="#000000">rev 0</text>
</g>
<!-- b_rev1 -->
<g id="node2" class="node">
<title>b_rev1</title>
<ellipse fill="none" stroke="#000000" cx="44" cy="-250" rx="28.0625" ry="18"/>
<text text-anchor="middle" x="44" y="-245.8" font-family="Times,serif" font-size="14.00" fill="#000000">rev 1</text>
</g>
<!-- b_rev0&#45;&gt;b_rev1 -->
<g id="edge1" class="edge">
<title>b_rev0&#45;&gt;b_rev1</title>
<path fill="none" stroke="#000000" stroke-width="4" d="M80.8672,-305.3008C74.8696,-296.3043 67.3498,-285.0247 60.6686,-275.0029"/>
<polygon fill="#000000" stroke="#000000" stroke-width="4" points="63.5317,-272.9877 55.0724,-266.6087 57.7073,-276.8706 63.5317,-272.9877"/>
</g>
<!-- b_client1 -->
<g id="node4" class="node">
<title>b_client1</title>
<ellipse fill="none" stroke="#000000" cx="140" cy="-250" rx="49.7706" ry="18"/>
<text text-anchor="middle" x="140" y="-245.8" font-family="Times,serif" font-size="14.00" fill="#000000">client rev 1</text>
</g>
<!-- b_rev0&#45;&gt;b_client1 -->
<g id="edge3" class="edge">
<title>b_rev0&#45;&gt;b_client1</title>
<path fill="none" stroke="#000000" d="M103.1328,-305.3008C108.9002,-296.6496 116.0752,-285.8873 122.5585,-276.1623"/>
<polygon fill="#000000" stroke="#000000" points="125.623,-277.8752 128.2579,-267.6132 119.7987,-273.9922 125.623,-277.8752"/>
</g>
<!-- b_rev2 -->
<g id="node3" class="node">
<title>b_rev2</title>
<ellipse fill="none" stroke="#000000" cx="44" cy="-178" rx="28.0625" ry="18"/>
<text text-anchor="middle" x="44" y="-173.8" font-family="Times,serif" font-size="14.00" fill="#000000">rev 2</text>
</g>
<!-- b_rev1&#45;&gt;b_rev2 -->
<g id="edge2" class="edge">
<title>b_rev1&#45;&gt;b_rev2</title>
<path fill="none" stroke="#000000" stroke-width="4" d="M44,-231.8314C44,-224.131 44,-214.9743 44,-206.4166"/>
<polygon fill="#000000" stroke="#000000" stroke-width="4" points="47.5001,-206.4132 44,-196.4133 40.5001,-206.4133 47.5001,-206.4132"/>
</g>
<!-- b_client2 -->
<g id="node5" class="node">
<title>b_client2</title>
<ellipse fill="none" stroke="#000000" cx="140" cy="-178" rx="49.7706" ry="18"/>
<text text-anchor="middle" x="140" y="-173.8" font-family="Times,serif" font-size="14.00" fill="#000000">client rev 2</text>
</g>
<!-- b_client1&#45;&gt;b_client2 -->
<g id="edge4" class="edge">
<title>b_client1&#45;&gt;b_client2</title>
<path fill="none" stroke="#000000" d="M140,-231.8314C140,-224.131 140,-214.9743 140,-206.4166"/>
<polygon fill="#000000" stroke="#000000" points="143.5001,-206.4132 140,-196.4133 136.5001,-206.4133 143.5001,-206.4132"/>
</g>
<!-- rev0 -->
<g id="node6" class="node">
<title>rev0</title>
<ellipse fill="none" stroke="#000000" cx="382" cy="-322" rx="28.0625" ry="18"/>
<text text-anchor="middle" x="382" y="-317.8" font-family="Times,serif" font-size="14.00" fill="#000000">rev 0</text>
</g>
<!-- rev1 -->
<g id="node7" class="node">
<title>rev1</title>
<ellipse fill="none" stroke="#000000" cx="347" cy="-250" rx="28.0625" ry="18"/>
<text text-anchor="middle" x="347" y="-245.8" font-family="Times,serif" font-size="14.00" fill="#000000">rev 1</text>
</g>
<!-- rev0&#45;&gt;rev1 -->
<g id="edge5" class="edge">
<title>rev0&#45;&gt;rev1</title>
<path fill="none" stroke="#000000" stroke-width="4" d="M373.5275,-304.5708C369.4003,-296.0807 364.3507,-285.6929 359.7689,-276.2674"/>
<polygon fill="#000000" stroke="#000000" stroke-width="4" points="362.9143,-274.7322 355.3945,-267.2687 356.6187,-277.7926 362.9143,-274.7322"/>
</g>
<!-- client1 -->
<g id="node9" class="node">
<title>client1</title>
<ellipse fill="none" stroke="#000000" cx="431" cy="-178" rx="49.7706" ry="18"/>
<text text-anchor="middle" x="431" y="-173.8" font-family="Times,serif" font-size="14.00" fill="#000000">client rev 1</text>
</g>
<!-- rev0&#45;&gt;client1 -->
<g id="edge9" class="edge">
<title>rev0&#45;&gt;client1</title>
<path fill="none" stroke="#000000" d="M388.0084,-304.3428C396.3752,-279.7545 411.6208,-234.9511 421.5268,-205.8397"/>
<polygon fill="#000000" stroke="#000000" points="424.8799,-206.8504 424.7879,-196.256 418.253,-204.5954 424.8799,-206.8504"/>
</g>
<!-- rev2 -->
<g id="node8" class="node">
<title>rev2</title>
<ellipse fill="none" stroke="#000000" cx="335" cy="-178" rx="28.0625" ry="18"/>
<text text-anchor="middle" x="335" y="-173.8" font-family="Times,serif" font-size="14.00" fill="#000000">rev 2</text>
</g>
<!-- rev1&#45;&gt;rev2 -->
<g id="edge6" class="edge">
<title>rev1&#45;&gt;rev2</title>
<path fill="none" stroke="#000000" stroke-width="4" d="M343.9719,-231.8314C342.6687,-224.0125 341.1154,-214.6923 339.6703,-206.0221"/>
<polygon fill="#000000" stroke="#000000" stroke-width="4" points="343.082,-205.2019 337.9856,-195.9134 336.1773,-206.3528 343.082,-205.2019"/>
</g>
<!-- client1_ -->
<g id="node11" class="node">
<title>client1_</title>
<ellipse fill="none" stroke="#000000" cx="335" cy="-106" rx="120.6977" ry="18"/>
<text text-anchor="middle" x="335" y="-101.8" font-family="Times,serif" font-size="14.00" fill="#000000">rev 3 (client rev 1 transformed)</text>
</g>
<!-- rev2&#45;&gt;client1_ -->
<g id="edge7" class="edge">
<title>rev2&#45;&gt;client1_</title>
<path fill="none" stroke="#000000" stroke-width="4" d="M335,-159.8314C335,-152.131 335,-142.9743 335,-134.4166"/>
<polygon fill="#000000" stroke="#000000" stroke-width="4" points="338.5001,-134.4132 335,-124.4133 331.5001,-134.4133 338.5001,-134.4132"/>
</g>
<!-- client2 -->
<g id="node10" class="node">
<title>client2</title>
<ellipse fill="none" stroke="#000000" cx="524" cy="-106" rx="49.7706" ry="18"/>
<text text-anchor="middle" x="524" y="-101.8" font-family="Times,serif" font-size="14.00" fill="#000000">client rev 2</text>
</g>
<!-- client1&#45;&gt;client2 -->
<g id="edge10" class="edge">
<title>client1&#45;&gt;client2</title>
<path fill="none" stroke="#000000" d="M452.1031,-161.6621C464.6185,-151.9728 480.6744,-139.5424 494.4375,-128.8871"/>
<polygon fill="#000000" stroke="#000000" points="496.8938,-131.4118 502.6585,-122.5225 492.6086,-125.8767 496.8938,-131.4118"/>
</g>
<!-- client1&#45;&gt;client1_ -->
<g id="edge11" class="edge">
<title>client1&#45;&gt;client1_</title>
<path fill="none" stroke="#ff0000" stroke-dasharray="1,5" d="M409.2161,-161.6621C396.7552,-152.3164 380.894,-140.4205 367.0362,-130.0271"/>
<polygon fill="#ff0000" stroke="#ff0000" points="368.815,-126.9862 358.7149,-123.7862 364.6149,-132.5862 368.815,-126.9862"/>
</g>
<!-- client2_ -->
<g id="node12" class="node">
<title>client2_</title>
<ellipse fill="none" stroke="#000000" cx="394" cy="-34" rx="120.6977" ry="18"/>
<text text-anchor="middle" x="394" y="-29.8" font-family="Times,serif" font-size="14.00" fill="#000000">rev 4 (client rev 2 transformed)</text>
</g>
<!-- client2&#45;&gt;client2_ -->
<g id="edge12" class="edge">
<title>client2&#45;&gt;client2_</title>
<path fill="none" stroke="#ff0000" stroke-dasharray="1,5" d="M496.7477,-90.9064C478.7986,-80.9654 454.9727,-67.7695 434.7836,-56.5879"/>
<polygon fill="#ff0000" stroke="#ff0000" points="436.2414,-53.3943 425.7977,-51.611 432.8498,-59.5178 436.2414,-53.3943"/>
</g>
<!-- client1_&#45;&gt;client2_ -->
<g id="edge8" class="edge">
<title>client1_&#45;&gt;client2_</title>
<path fill="none" stroke="#000000" stroke-width="4" d="M349.8882,-87.8314C356.8586,-79.3251 365.2851,-69.0419 372.8977,-59.752"/>
<polygon fill="#000000" stroke="#000000" stroke-width="4" points="375.6899,-61.8666 379.321,-51.9134 370.2755,-57.4298 375.6899,-61.8666"/>
</g>
</g>
</svg>
