<?xml version="1.0" encoding="UTF-8" standalone="no"?>
<!DOCTYPE svg PUBLIC "-//W3C//DTD SVG 1.1//EN"
 "http://www.w3.org/Graphics/SVG/1.1/DTD/svg11.dtd">
<!-- Generated by graphviz version 2.40.1 (20161225.0304)
 -->
<!-- Title: merge Pages: 1 -->
<svg width="544pt" height="364pt"
 viewBox="0.00 0.00 544.00 364.00" xmlns="http://www.w3.org/2000/svg" xmlns:xlink="http://www.w3.org/1999/xlink">
<g id="graph0" class="graph" transform="scale(1 1) rotate(0) translate(4 360)">
<title>merge</title>
<polygon fill="#ffffff" stroke="transparent" points="-4,4 -4,-360 540,-360 540,4 -4,4"/>
<g id="clust1" class="cluster">
<title>cluster_0</title>
<polygon fill="none" stroke="#000000" points="8,-8 8,-348 198,-348 198,-8 8,-8"/>
</g>
<g id="clust2" class="cluster">
<title>cluster_1</title>
<polygon fill="none" stroke="#000000" points="206,-8 206,-348 528,-348 528,-8 206,-8"/>
</g>
<!-- b_rev0 -->
<g id="node1" class="node">
<title>b_rev0</title>
<ellipse fill="none" stroke="#000000" cx="92" cy="-322" rx="28.0625" ry="18"/>
<text text-anchor="middle" x="92" y="-317.8" font-family="Times,serif" font-size="14.00" fill="#000000">rev 0</text>
</g>
<!-- b_rev1 -->
<g id="node2" class="node">
<title>b_rev1</title>
<ellipse fill="none" stroke="#000000" cx="44" cy="-250" rx="28.0625" ry="18"/>
<text text-anchor="middle" x="44" y="-245.8" font-family="Times,serif" font-size="14.00" fill="#000000">rev 1</text>
</g>
<!-- b_rev0&#45;&gt;b_rev1 -->
<g id="edge1" class="edge">
<title>b_rev0&#45;&gt;b_rev1</title>
<path fill="none" stroke="#000000" stroke-width="4" d="M80.8672,-305.3008C74.8696,-296.3043 67.3498,-285.0247 60.6686,-275.0029"/>
<polygon fill="#000000" stroke="#000000" stroke-width="4" points="63.5317,-272.9877 55.0724,-266.6087 57.7073,-276.8706 63.5317,-272.9877"/>
</g>
<!-- b_client1 -->
<g id="node4" class="node">
<title>b_client1</title>
<ellipse fill="none" stroke="#000000" cx="140" cy="-250" rx="49.7706" ry="18"/>
<text text-anchor="middle" x="140" y="-245.8" font-family="Times,serif" font-size="14.00" fill="#000000">client rev 1</text>
</g>
<!-- b_rev0&#45;&gt;b_client1 -->
<g id="edge3" class="edge">
<title>b_rev0&#45;&gt;b_client1</title>
<path fill="none" stroke="#000000" d="M103.1328,-305.3008C108.9002,-296.6496 116.0752,-285.8873 122.5585,-276.1623"/>
<polygon fill="#000000" stroke="#000000" points="125.623,-277.8752 128.2579,-267.6132 119.7987,-273.9922 125.623,-277.8752"/>
</g>
<!-- b_rev2 -->
<g id="node3" class="node">
<title>b_rev2</title>
<ellipse fill="none" stroke="#000000" cx="44" cy="-178" rx="28.0625" ry="18"/>
<text text-anchor="middle" x="44" y="-173.8" font-family="Times,serif" font-size="14.00" fill="#000000">rev 2</text>
</g>
<!-- b_rev1&#45;&gt;b_rev2 -->
<g id="edge2" class="edge">
<title>b_rev1&#45;&gt;b_rev2</title>
<path fill="none" stroke="#000000" stroke-width="4" d="M44,-231.8314C44,-224.131 44,-214.9743 44,-206.4166"/>
<polygon fill="#000000" stroke="#000000" stroke-width="4" points="47.5001,-206.4132 44,-196.4133 40.5001,-206.4133 47.5001,-206.4132"/>
</g>
<!-- inv1 -->
<g id="node6" class="node">
<title>inv1</title>
</g>
<!-- b_rev2&#45;&gt;inv1 -->
<g id="edge5" class="edge">
<title>b_rev2&#45;&gt;inv1</title>
</g>
<!-- b_client2 -->
<g id="node5" class="node">
<title>b_client2</title>
<ellipse fill="none" stroke="#000000" cx="140" cy="-178" rx="49.7706" ry="18"/>
<text text-anchor="middle" x="140" y="-173.8" font-family="Times,serif" font-size="14.00" fill="#000000">client rev 2</text>
</g>
<!-- b_client1&#45;&gt;b_client2 -->
<g id="edge4" class="edge">
<title>b_client1&#45;&gt;b_client2</title>
<path fill="none" stroke="#000000" d="M140,-231.8314C140,-224.131 140,-214.9743 140,-206.4166"/>
<polygon fill="#000000" stroke="#000000" points="143.5001,-206.4132 140,-196.4133 136.5001,-206.4133 143.5001,-206.4132"/>
</g>
<!-- inv2 -->
<g id="node7" class="node">
<title>inv2</title>
</g>
<!-- inv1&#45;&gt;inv2 -->
<g id="edge6" class="edge">
<title>inv1&#45;&gt;inv2</title>
</g>
<!-- rev0 -->
<g id="node8" class="node">
<title>rev0</title>
<ellipse fill="none" stroke="#000000" cx="368" cy="-322" rx="28.0625" ry="18"/>
<text text-anchor="middle" x="368" y="-317.8" font-family="Times,serif" font-size="14.00" fill="#000000">rev 0</text>
</g>
<!-- rev1 -->
<g id="node9" class="node">
<title>rev1</title>
<ellipse fill="none" stroke="#000000" cx="292" cy="-250" rx="57.9979" ry="18"/>
<text text-anchor="middle" x="292" y="-245.8" font-family="Times,serif" font-size="14.00" fill="#000000">original rev 1</text>
</g>
<!-- rev0&#45;&gt;rev1 -->
<g id="edge7" class="edge">
<title>rev0&#45;&gt;rev1</title>
<path fill="none" stroke="#000000" d="M352.2528,-307.0816C342.195,-297.5532 328.926,-284.9825 317.4007,-274.0638"/>
<polygon fill="#000000" stroke="#000000" points="319.7966,-271.5124 310.13,-267.1757 314.9824,-276.5941 319.7966,-271.5124"/>
</g>
<!-- client1 -->
<g id="node11" class="node">
<title>client1</title>
<ellipse fill="none" stroke="#000000" cx="444" cy="-250" rx="75.8208" ry="18"/>
<text text-anchor="middle" x="444" y="-245.8" font-family="Times,serif" font-size="14.00" fill="#000000">rev 1 (client rev 1)</text>
</g>
<!-- rev0&#45;&gt;client1 -->
<g id="edge9" class="edge">
<title>rev0&#45;&gt;client1</title>
<path fill="none" stroke="#000000" stroke-width="4" d="M383.7472,-307.0816C393.5679,-297.7778 406.4502,-285.5735 417.7814,-274.8387"/>
<polygon fill="#000000" stroke="#000000" stroke-width="4" points="420.4692,-277.1136 425.3216,-267.6953 415.655,-272.0319 420.4692,-277.1136"/>
</g>
<!-- rev2 -->
<g id="node10" class="node">
<title>rev2</title>
<ellipse fill="none" stroke="#000000" cx="272" cy="-178" rx="57.9979" ry="18"/>
<text text-anchor="middle" x="272" y="-173.8" font-family="Times,serif" font-size="14.00" fill="#000000">original rev 2</text>
</g>
<!-- rev1&#45;&gt;rev2 -->
<g id="edge8" class="edge">
<title>rev1&#45;&gt;rev2</title>
<path fill="none" stroke="#000000" d="M286.9532,-231.8314C284.7906,-224.0463 282.2147,-214.7729 279.8152,-206.1347"/>
<polygon fill="#000000" stroke="#000000" points="283.1636,-205.1117 277.1148,-196.4133 276.419,-206.9852 283.1636,-205.1117"/>
</g>
<!-- rev3 -->
<g id="node13" class="node">
<title>rev3</title>
<ellipse fill="none" stroke="#000000" cx="391" cy="-106" rx="128.9244" ry="18"/>
<text text-anchor="middle" x="391" y="-101.8" font-family="Times,serif" font-size="14.00" fill="#000000">rev 3 (original rev 1 transformed)</text>
</g>
<!-- rev1&#45;&gt;rev3 -->
<g id="edge13" class="edge">
<title>rev1&#45;&gt;rev3</title>
<path fill="none" stroke="#ff0000" stroke-dasharray="5,2" d="M309.0941,-232.2858C318.4815,-222.1027 330.0077,-208.821 339,-196 349.5101,-181.015 349.8891,-175.8746 359,-160 364.0193,-151.2544 369.5908,-141.7762 374.6596,-133.2374"/>
<polygon fill="#ff0000" stroke="#ff0000" points="377.8014,-134.8022 379.9126,-124.4198 371.7877,-131.2196 377.8014,-134.8022"/>
</g>
<!-- rev4 -->
<g id="node14" class="node">
<title>rev4</title>
<ellipse fill="none" stroke="#000000" cx="367" cy="-34" rx="128.9244" ry="18"/>
<text text-anchor="middle" x="367" y="-29.8" font-family="Times,serif" font-size="14.00" fill="#000000">rev 4 (original rev 2 transformed)</text>
</g>
<!-- rev2&#45;&gt;rev4 -->
<g id="edge14" class="edge">
<title>rev2&#45;&gt;rev4</title>
<path fill="none" stroke="#ff0000" stroke-dasharray="5,2" d="M260.9759,-160.0584C250.7315,-140.8425 238.995,-110.1307 253,-88 262.5448,-72.9172 277.5673,-61.9649 293.6121,-54.0416"/>
<polygon fill="#ff0000" stroke="#ff0000" points="295.4823,-57.0366 303.1434,-49.7183 292.5907,-50.6618 295.4823,-57.0366"/>
</g>
<!-- client2 -->
<g id="node12" class="node">
<title>client2</title>
<ellipse fill="none" stroke="#000000" cx="444" cy="-178" rx="75.8208" ry="18"/>
<text text-anchor="middle" x="444" y="-173.8" font-family="Times,serif" font-size="14.00" fill="#000000">rev 2 (client rev 2)</text>
</g>
<!-- client1&#45;&gt;client2 -->
<g id="edge10" class="edge">
<title>client1&#45;&gt;client2</title>
<path fill="none" stroke="#000000" stroke-width="4" d="M444,-231.8314C444,-224.131 444,-214.9743 444,-206.4166"/>
<polygon fill="#000000" stroke="#000000" stroke-width="4" points="447.5001,-206.4132 444,-196.4133 440.5001,-206.4133 447.5001,-206.4132"/>
</g>
<!-- client2&#45;&gt;rev3 -->
<g id="edge11" class="edge">
<title>client2&#45;&gt;rev3</title>
<path fill="none" stroke="#000000" stroke-width="4" d="M430.8989,-160.2022C424.7029,-151.7851 417.1809,-141.5665 410.3453,-132.2805"/>
<polygon fill="#000000" stroke="#000000" stroke-width="4" points="413.0654,-130.0716 404.3185,-124.0931 407.4281,-134.2214 413.0654,-130.0716"/>
</g>
<!-- rev3&#45;&gt;rev4 -->
<g id="edge12" class="edge">
<title>rev3&#45;&gt;rev4</title>
<path fill="none" stroke="#000000" stroke-width="4" d="M384.9438,-87.8314C382.3488,-80.0463 379.2576,-70.7729 376.3782,-62.1347"/>
<polygon fill="#000000" stroke="#000000" stroke-width="4" points="379.6205,-60.7933 373.1378,-52.4133 372.9797,-63.0069 379.6205,-60.7933"/>
</g>
</g>
</svg>
