<?xml version="1.0" encoding="UTF-8" standalone="no"?>
<!DOCTYPE svg PUBLIC "-//W3C//DTD SVG 1.1//EN"
 "http://www.w3.org/Graphics/SVG/1.1/DTD/svg11.dtd">
<!-- Generated by graphviz version 2.40.1 (20161225.0304)
 -->
<!-- Title: merge Pages: 1 -->
<svg width="629pt" height="364pt"
 viewBox="0.00 0.00 629.00 364.00" xmlns="http://www.w3.org/2000/svg" xmlns:xlink="http://www.w3.org/1999/xlink">
<g id="graph0" class="graph" transform="scale(1 1) rotate(0) translate(4 360)">
<title>merge</title>
<polygon fill="#ffffff" stroke="transparent" points="-4,4 -4,-360 625,-360 625,4 -4,4"/>
<g id="clust1" class="cluster">
<title>cluster_0</title>
<polygon fill="none" stroke="#000000" points="8,-152 8,-348 198,-348 198,-152 8,-152"/>
</g>
<g id="clust2" class="cluster">
<title>cluster_1</title>
<polygon fill="none" stroke="#000000" points="206,-8 206,-348 613,-348 613,-8 206,-8"/>
</g>
<!-- b_rev0 -->
<g id="node1" class="node">
<title>b_rev0</title>
<ellipse fill="none" stroke="#000000" cx="92" cy="-322" rx="28.0625" ry="18"/>
<text text-anchor="middle" x="92" y="-317.8" font-family="Times,serif" font-size="14.00" fill="#000000">rev 0</text>
</g>
<!-- b_rev1 -->
<g id="node2" class="node">
<title>b_rev1</title>
<ellipse fill="none" stroke="#000000" cx="44" cy="-250" rx="28.0625" ry="18"/>
<text text-anchor="middle" x="44" y="-245.8" font-family="Times,serif" font-size="14.00" fill="#000000">rev 1</text>
</g>
<!-- b_rev0&#45;&gt;b_rev1 -->
<g id="edge1" class="edge">
<title>b_rev0&#45;&gt;b_rev1</title>
<path fill="none" stroke="#000000" stroke-width="4" d="M80.8672,-305.3008C74.8696,-296.3043 67.3498,-285.0247 60.6686,-275.0029"/>
<polygon fill="#000000" stroke="#000000" stroke-width="4" points="63.5317,-272.9877 55.0724,-266.6087 57.7073,-276.8706 63.5317,-272.9877"/>
</g>
<!-- b_client1 -->
<g id="node4" class="node">
<title>b_client1</title>
<ellipse fill="none" stroke="#000000" cx="140" cy="-250" rx="49.7706" ry="18"/>
<text text-anchor="middle" x="140" y="-245.8" font-family="Times,serif" font-size="14.00" fill="#000000">client rev 1</text>
</g>
<!-- b_rev0&#45;&gt;b_client1 -->
<g id="edge3" class="edge">
<title>b_rev0&#45;&gt;b_client1</title>
<path fill="none" stroke="#000000" d="M103.1328,-305.3008C108.9002,-296.6496 116.0752,-285.8873 122.5585,-276.1623"/>
<polygon fill="#000000" stroke="#000000" points="125.623,-277.8752 128.2579,-267.6132 119.7987,-273.9922 125.623,-277.8752"/>
</g>
<!-- b_rev2 -->
<g id="node3" class="node">
<title>b_rev2</title>
<ellipse fill="none" stroke="#000000" cx="44" cy="-178" rx="28.0625" ry="18"/>
<text text-anchor="middle" x="44" y="-173.8" font-family="Times,serif" font-size="14.00" fill="#000000">rev 2</text>
</g>
<!-- b_rev1&#45;&gt;b_rev2 -->
<g id="edge2" class="edge">
<title>b_rev1&#45;&gt;b_rev2</title>
<path fill="none" stroke="#000000" stroke-width="4" d="M44,-231.8314C44,-224.131 44,-214.9743 44,-206.4166"/>
<polygon fill="#000000" stroke="#000000" stroke-width="4" points="47.5001,-206.4132 44,-196.4133 40.5001,-206.4133 47.5001,-206.4132"/>
</g>
<!-- b_client2 -->
<g id="node5" class="node">
<title>b_client2</title>
<ellipse fill="none" stroke="#000000" cx="140" cy="-178" rx="49.7706" ry="18"/>
<text text-anchor="middle" x="140" y="-173.8" font-family="Times,serif" font-size="14.00" fill="#000000">client rev 2</text>
</g>
<!-- b_client1&#45;&gt;b_client2 -->
<g id="edge4" class="edge">
<title>b_client1&#45;&gt;b_client2</title>
<path fill="none" stroke="#000000" d="M140,-231.8314C140,-224.131 140,-214.9743 140,-206.4166"/>
<polygon fill="#000000" stroke="#000000" points="143.5001,-206.4132 140,-196.4133 136.5001,-206.4133 143.5001,-206.4132"/>
</g>
<!-- rev0 -->
<g id="node6" class="node">
<title>rev0</title>
<ellipse fill="none" stroke="#000000" cx="385" cy="-322" rx="28.0625" ry="18"/>
<text text-anchor="middle" x="385" y="-317.8" font-family="Times,serif" font-size="14.00" fill="#000000">rev 0</text>
</g>
<!-- rev1 -->
<g id="node7" class="node">
<title>rev1</title>
<ellipse fill="none" stroke="#000000" cx="324" cy="-178" rx="57.9979" ry="18"/>
<text text-anchor="middle" x="324" y="-173.8" font-family="Times,serif" font-size="14.00" fill="#000000">original rev 1</text>
</g>
<!-- rev0&#45;&gt;rev1 -->
<g id="edge5" class="edge">
<title>rev0&#45;&gt;rev1</title>
<path fill="none" stroke="#000000" d="M377.642,-304.6302C367.1652,-279.8982 347.8508,-234.3034 335.4813,-205.1034"/>
<polygon fill="#000000" stroke="#000000" points="338.6989,-203.7258 331.5755,-195.8831 332.2533,-206.4562 338.6989,-203.7258"/>
</g>
<!-- client1 -->
<g id="node9" class="node">
<title>client1</title>
<ellipse fill="none" stroke="#000000" cx="461" cy="-250" rx="75.8208" ry="18"/>
<text text-anchor="middle" x="461" y="-245.8" font-family="Times,serif" font-size="14.00" fill="#000000">rev 1 (client rev 1)</text>
</g>
<!-- rev0&#45;&gt;client1 -->
<g id="edge7" class="edge">
<title>rev0&#45;&gt;client1</title>
<path fill="none" stroke="#000000" stroke-width="4" d="M400.7472,-307.0816C410.5679,-297.7778 423.4502,-285.5735 434.7814,-274.8387"/>
<polygon fill="#000000" stroke="#000000" stroke-width="4" points="437.4692,-277.1136 442.3216,-267.6953 432.655,-272.0319 437.4692,-277.1136"/>
</g>
<!-- rev2 -->
<g id="node8" class="node">
<title>rev2</title>
<ellipse fill="none" stroke="#000000" cx="272" cy="-106" rx="57.9979" ry="18"/>
<text text-anchor="middle" x="272" y="-101.8" font-family="Times,serif" font-size="14.00" fill="#000000">original rev 2</text>
</g>
<!-- rev1&#45;&gt;rev2 -->
<g id="edge6" class="edge">
<title>rev1&#45;&gt;rev2</title>
<path fill="none" stroke="#000000" d="M311.1461,-160.2022C304.9749,-151.6576 297.463,-141.2564 290.676,-131.859"/>
<polygon fill="#000000" stroke="#000000" points="293.3984,-129.6506 284.7061,-123.593 287.7236,-133.7491 293.3984,-129.6506"/>
</g>
<!-- rev3 -->
<g id="node11" class="node">
<title>rev3</title>
<ellipse fill="none" stroke="#000000" cx="476" cy="-106" rx="128.9244" ry="18"/>
<text text-anchor="middle" x="476" y="-101.8" font-family="Times,serif" font-size="14.00" fill="#000000">rev 3 (original rev 1 transformed)</text>
</g>
<!-- rev1&#45;&gt;rev3 -->
<g id="edge11" class="edge">
<title>rev1&#45;&gt;rev3</title>
<path fill="none" stroke="#ff0000" stroke-dasharray="1,5" d="M355.8642,-162.9064C377.3827,-152.7135 406.1252,-139.0986 430.1008,-127.7417"/>
<polygon fill="#ff0000" stroke="#ff0000" points="431.8295,-130.7958 439.3685,-123.3517 428.8328,-124.4696 431.8295,-130.7958"/>
</g>
<!-- rev4 -->
<g id="node12" class="node">
<title>rev4</title>
<ellipse fill="none" stroke="#000000" cx="409" cy="-34" rx="128.9244" ry="18"/>
<text text-anchor="middle" x="409" y="-29.8" font-family="Times,serif" font-size="14.00" fill="#000000">rev 4 (original rev 2 transformed)</text>
</g>
<!-- rev2&#45;&gt;rev4 -->
<g id="edge12" class="edge">
<title>rev2&#45;&gt;rev4</title>
<path fill="none" stroke="#ff0000" stroke-dasharray="1,5" d="M301.727,-90.3771C320.6474,-80.4335 345.4524,-67.3973 366.4436,-56.3654"/>
<polygon fill="#ff0000" stroke="#ff0000" points="368.2568,-59.3664 375.4806,-51.6161 365.0003,-53.1701 368.2568,-59.3664"/>
</g>
<!-- client2 -->
<g id="node10" class="node">
<title>client2</title>
<ellipse fill="none" stroke="#000000" cx="476" cy="-178" rx="75.8208" ry="18"/>
<text text-anchor="middle" x="476" y="-173.8" font-family="Times,serif" font-size="14.00" fill="#000000">rev 2 (client rev 2)</text>
</g>
<!-- client1&#45;&gt;client2 -->
<g id="edge8" class="edge">
<title>client1&#45;&gt;client2</title>
<path fill="none" stroke="#000000" stroke-width="4" d="M464.7851,-231.8314C466.3894,-224.131 468.297,-214.9743 470.0799,-206.4166"/>
<polygon fill="#000000" stroke="#000000" stroke-width="4" points="473.5507,-206.9169 472.1639,-196.4133 466.6979,-205.4892 473.5507,-206.9169"/>
</g>
<!-- client2&#45;&gt;rev3 -->
<g id="edge9" class="edge">
<title>client2&#45;&gt;rev3</title>
<path fill="none" stroke="#000000" stroke-width="4" d="M476,-159.8314C476,-152.131 476,-142.9743 476,-134.4166"/>
<polygon fill="#000000" stroke="#000000" stroke-width="4" points="479.5001,-134.4132 476,-124.4133 472.5001,-134.4133 479.5001,-134.4132"/>
</g>
<!-- rev3&#45;&gt;rev4 -->
<g id="edge10" class="edge">
<title>rev3&#45;&gt;rev4</title>
<path fill="none" stroke="#000000" stroke-width="4" d="M459.0931,-87.8314C451.0976,-79.2392 441.415,-68.834 432.702,-59.4708"/>
<polygon fill="#000000" stroke="#000000" stroke-width="4" points="435.044,-56.8498 425.6694,-51.9134 429.9195,-61.6184 435.044,-56.8498"/>
</g>
</g>
</svg>
